<svg width="24" height="26" viewBox="0 0 24 26" fill="none" xmlns="http://www.w3.org/2000/svg">
<path d="M3.9006 25.6C3.67347 25.6 3.50516 25.516 3.3884 25.3809C3.2671 25.2406 3.17673 25.015 3.17673 24.7V1.3C3.17673 0.984952 3.2671 0.759403 3.3884 0.6191C3.50516 0.484037 3.67347 0.4 3.9006 0.4C4.12774 0.4 4.29605 0.484037 4.41281 0.6191C4.53411 0.759403 4.62448 0.984952 4.62448 1.3V24.7C4.62448 25.015 4.53411 25.2406 4.41281 25.3809C4.29605 25.516 4.12774 25.6 3.9006 25.6Z" fill="white" stroke="#4D5460" stroke-width="0.8"/>
<path d="M11.7677 25.6C11.5406 25.6 11.3723 25.5159 11.2555 25.3809C11.1342 25.2406 11.0439 25.015 11.0439 24.7V13.91C11.0439 13.5949 11.1342 13.3694 11.2555 13.2291C11.3723 13.094 11.5406 13.01 11.7677 13.01C11.9949 13.01 12.1632 13.094 12.2799 13.2291C12.4012 13.3694 12.4916 13.5949 12.4916 13.91V24.7C12.4916 25.015 12.4012 25.2406 12.2799 25.3809C12.1632 25.5159 11.9949 25.6 11.7677 25.6Z" fill="white" stroke="#4D5460" stroke-width="0.8"/>
<path d="M11.7677 9.87C11.5406 9.87 11.3723 9.78596 11.2555 9.6509C11.1342 9.5106 11.0439 9.28505 11.0439 8.97V1.3C11.0439 0.984952 11.1342 0.759404 11.2555 0.6191C11.3723 0.484037 11.5406 0.4 11.7677 0.4C11.9949 0.4 12.1632 0.484037 12.2799 0.6191C12.4012 0.759404 12.4916 0.984952 12.4916 1.3V8.97C12.4916 9.48352 12.1453 9.87 11.7677 9.87Z" fill="white" stroke="#4D5460" stroke-width="0.8"/>
<path d="M19.6349 25.6C19.4077 25.6 19.2394 25.516 19.1226 25.3809C19.0014 25.2406 18.911 25.015 18.911 24.7V1.3C18.911 0.984952 19.0014 0.759403 19.1226 0.6191C19.2394 0.484037 19.4077 0.4 19.6349 0.4C19.862 0.4 20.0303 0.484037 20.1471 0.6191C20.2684 0.759403 20.3587 0.984952 20.3587 1.3V24.7C20.3587 25.015 20.2684 25.2406 20.1471 25.3809C20.0303 25.516 19.862 25.6 19.6349 25.6Z" fill="white" stroke="#4D5460" stroke-width="0.8"/>
<path d="M6.14841 7.00994H1.65292C1.42579 7.00994 1.25748 6.9259 1.14071 6.79084C1.01942 6.65053 0.929053 6.42498 0.929053 6.10994C0.929053 5.79489 1.01942 5.56934 1.14071 5.42904C1.25748 5.29397 1.42579 5.20994 1.65292 5.20994H6.14841C6.37554 5.20994 6.54385 5.29397 6.66062 5.42904C6.78191 5.56934 6.87228 5.79489 6.87228 6.10994C6.87228 6.42498 6.78191 6.65053 6.66062 6.79084C6.54385 6.9259 6.37554 7.00994 6.14841 7.00994Z" fill="white" stroke="#4D5460" stroke-width="0.8"/>
<path d="M14.0155 14.29H9.51999C9.29286 14.29 9.12454 14.2059 9.00778 14.0709C8.88649 13.9306 8.79612 13.705 8.79612 13.39C8.79612 13.0749 8.88649 12.8494 9.00778 12.7091C9.12454 12.574 9.29286 12.49 9.51999 12.49H14.0155C14.2426 12.49 14.4109 12.574 14.5277 12.7091C14.649 12.8494 14.7393 13.0749 14.7393 13.39C14.7393 13.9785 14.3282 14.29 14.0155 14.29Z" fill="white" stroke="#4D5460" stroke-width="0.8"/>
<path d="M21.8826 21.7H17.3871C17.16 21.7 16.9917 21.616 16.8749 21.4809C16.7536 21.3406 16.6632 21.115 16.6632 20.8C16.6632 20.485 16.7536 20.2594 16.8749 20.1191C16.9917 19.984 17.16 19.9 17.3871 19.9H21.8826C22.1097 19.9 22.278 19.984 22.3948 20.1191C22.5161 20.2594 22.6065 20.485 22.6065 20.8C22.6065 21.115 22.5161 21.3406 22.3948 21.4809C22.278 21.616 22.1097 21.7 21.8826 21.7Z" fill="white" stroke="#4D5460" stroke-width="0.8"/>
</svg>
