<svg width="20" height="20" viewBox="0 0 20 20" fill="none" xmlns="http://www.w3.org/2000/svg">
<path d="M19.5556 3.17778H17.7556H14.6667V1.51111C14.6667 0.688889 14.0444 0 13.2667 0H6.73333C5.95556 0 5.33333 0.688889 5.33333 1.51111V3.17778H2.24444H0.444444C0.2 3.17778 0 3.37778 0 3.62222C0 3.86667 0.2 4.06667 0.444444 4.06667H2.24444V17.3333C2.24444 18.8 3.44444 20 4.91111 20H15.0889C16.5556 20 17.7556 18.8 17.7556 17.3333V4.06667H19.5556C19.8 4.06667 20 3.86667 20 3.62222C20 3.37778 19.8 3.17778 19.5556 3.17778ZM6.22222 1.51111C6.22222 1.17778 6.44444 0.888889 6.71111 0.888889H13.2667C13.5556 0.888889 13.7778 1.17778 13.7778 1.51111V3.17778H6.22222V1.51111ZM16.8667 17.3333C16.8667 18.3111 16.0667 19.1111 15.0889 19.1111H4.91111C3.93333 19.1111 3.13333 18.3111 3.13333 17.3333V4.06667H16.8667V17.3333Z" fill="#E1993D"/>
<path d="M7.46667 16.0222C7.71111 16.0222 7.91111 15.8222 7.91111 15.5777V7.59996C7.91111 7.35552 7.71111 7.15552 7.46667 7.15552C7.22222 7.15552 7.02222 7.35552 7.02222 7.59996V15.5555C7.02222 15.8222 7.22222 16.0222 7.46667 16.0222Z" fill="#E1993D"/>
<path d="M12.5333 16.0222C12.7778 16.0222 12.9778 15.8222 12.9778 15.5777V7.59996C12.9778 7.35552 12.7778 7.15552 12.5333 7.15552C12.2889 7.15552 12.0889 7.35552 12.0889 7.59996V15.5555C12.0889 15.8222 12.2889 16.0222 12.5333 16.0222Z" fill="#E1993D"/>
</svg>
