<svg width="19" height="19" viewBox="0 0 19 19" fill="none" xmlns="http://www.w3.org/2000/svg">
<path d="M17.163 16.3227V16.1977H17.162V9.36983H17.977V16.3227C17.977 17.6474 16.8431 18.7589 15.44 18.7589H2.662C1.25889 18.7589 0.125 17.6483 0.125 16.3227V4.14705C0.125 2.82446 1.25564 1.76031 2.662 1.76031H9.991V2.52415H2.662C1.72047 2.52415 0.94 3.22938 0.94 4.14609V16.3227C0.94 17.2341 1.71495 17.9951 2.662 17.9951H15.441C16.388 17.9951 17.163 17.2341 17.163 16.3227Z" fill="white" stroke="white" stroke-width="0.25"/>
<path d="M18.1517 1.57143L18.1519 1.57159C18.5307 1.93165 18.737 2.40799 18.737 2.91504C18.737 3.42201 18.5297 3.89939 18.1518 4.25955L11.0088 11.0658C10.9567 11.1154 10.8916 11.1512 10.8196 11.168L10.819 11.1681L7.80703 11.8856L7.8064 11.8858C7.77368 11.8937 7.74066 11.8974 7.707 11.8974C7.59901 11.8974 7.49428 11.8567 7.41737 11.7834C7.31717 11.6871 7.27875 11.5505 7.31195 11.4232L8.06391 8.5543L8.06399 8.55401C8.0809 8.48885 8.1174 8.42712 8.16923 8.37774L8.083 8.28725L8.16923 8.37774L15.3122 1.57148C16.069 0.850411 17.396 0.850486 18.1517 1.57143ZM10.476 10.4613L10.5088 10.4535L10.5332 10.4302L16.4422 4.79976L16.5372 4.70927L16.4422 4.61877L14.9362 3.18377L14.85 3.10161L14.7638 3.18377L8.85477 8.8142L8.82909 8.83867L8.82009 8.87298L8.31809 10.7863L8.26519 10.9879L8.46796 10.9396L10.476 10.4613ZM17.0228 4.08131L17.109 4.16347L17.1952 4.08131L17.5712 3.72304C17.7962 3.50864 17.922 3.22183 17.922 2.91504C17.922 2.60824 17.7962 2.32144 17.5712 2.10704C17.1209 1.67799 16.3431 1.67799 15.8928 2.10704L15.5168 2.46532L15.4218 2.55581L15.5168 2.64631L17.0228 4.08131Z" fill="white" stroke="white" stroke-width="0.25"/>
</svg>
