<svg width="19" height="18" viewBox="0 0 19 18" fill="none" xmlns="http://www.w3.org/2000/svg">
<path d="M17.163 15.4171V15.2921H17.162V8.46425H17.977V15.4171C17.977 16.7418 16.8431 17.8534 15.44 17.8534H2.662C1.25889 17.8534 0.125 16.7428 0.125 15.4171V3.24147C0.125 1.91888 1.25564 0.854736 2.662 0.854736H9.991V1.61858H2.662C1.72047 1.61858 0.94 2.3238 0.94 3.24051V15.4171C0.94 16.3285 1.71495 17.0895 2.662 17.0895H15.441C16.388 17.0895 17.163 16.3285 17.163 15.4171Z" fill="#E1993D" stroke="#E1993D" stroke-width="0.25"/>
<path d="M18.1517 0.66573L18.1519 0.66589C18.5307 1.02595 18.737 1.50229 18.737 2.00934C18.737 2.51631 18.5297 2.99369 18.1518 3.35384L11.0088 10.1601C10.9567 10.2097 10.8916 10.2455 10.8196 10.2623L10.819 10.2624L7.80703 10.9799L7.80639 10.9801C7.77368 10.988 7.74066 10.9917 7.707 10.9917C7.59904 10.9917 7.49436 10.951 7.41745 10.8778C7.31721 10.7815 7.27875 10.6448 7.31193 10.5176C7.31194 10.5176 7.31194 10.5175 7.31195 10.5175L8.06391 7.6486L8.06399 7.64831C8.0809 7.58315 8.1174 7.52142 8.16923 7.47204L15.3122 0.665783C16.069 -0.0552897 17.396 -0.0552146 18.1517 0.66573ZM10.476 9.5556L10.5088 9.54778L10.5332 9.5245L16.4422 3.89406L16.5372 3.80357L16.4422 3.71307L14.9362 2.27807L14.85 2.1959L14.7638 2.27807L8.85477 7.9085L8.82909 7.93297L8.82009 7.96728L8.31809 9.88061L8.26519 10.0822L8.46796 10.0339L10.476 9.5556ZM17.0228 3.17561L17.109 3.25777L17.1952 3.17561L17.5712 2.81733C17.7962 2.60294 17.922 2.31613 17.922 2.00934C17.922 1.70254 17.7962 1.41573 17.5712 1.20134C17.1209 0.772286 16.3431 0.772286 15.8928 1.20134L15.5168 1.55961L15.4218 1.65011L15.5168 1.74061L17.0228 3.17561Z" fill="#E1993D" stroke="#E1993D" stroke-width="0.25"/>
</svg>
