<svg width="14" height="26" viewBox="0 0 14 26" fill="none" xmlns="http://www.w3.org/2000/svg">
<path d="M6.94606 0C3.19794 0 0.122559 3.51549 0.122559 7.8C0.122559 11.938 6.33739 25.1944 6.59367 25.7437C6.65774 25.8901 6.78588 26 6.94606 26C7.10624 26 7.23438 25.8901 7.29845 25.7437C7.55473 25.1944 13.7696 11.938 13.7696 7.8C13.7696 3.51549 10.6942 0 6.94606 0ZM6.94606 24.5718C5.60058 21.6423 0.923439 11.169 0.923439 7.83662C0.923439 4.02817 3.6144 0.915493 6.94606 0.915493C10.2777 0.915493 12.9687 3.99155 12.9687 7.8C12.9687 11.169 8.29154 21.6423 6.94606 24.5718Z" fill="white"/>
<path d="M6.9461 5.63953C5.50452 5.63953 4.31921 6.99446 4.31921 8.64234C4.31921 10.2902 5.50452 11.6452 6.9461 11.6452C8.38769 11.6452 9.57299 10.2902 9.57299 8.64234C9.57299 6.99446 8.38769 5.63953 6.9461 5.63953ZM6.9461 10.693C5.95301 10.693 5.12009 9.77755 5.12009 8.60572C5.12009 7.43389 5.92098 6.5184 6.9461 6.5184C7.97123 6.5184 8.77211 7.43389 8.77211 8.60572C8.77211 9.77755 7.93919 10.693 6.9461 10.693Z" fill="white"/>
</svg>
