<svg xmlns="http://www.w3.org/2000/svg" viewBox="0 0 100 125" x="0px" y="0px"><title>Streamline-Basic_мой_content edition4</title><g data-name="expand? compound"><path d="M84.875,23.5H15.125a3.50393,3.50393,0,0,0-3.5,3.5V73a3.50393,3.50393,0,0,0,3.5,3.5h69.75a3.50393,3.50393,0,0,0,3.5-3.5V27A3.50393,3.50393,0,0,0,84.875,23.5Zm-69.75,1h69.75a2.49479,2.49479,0,0,1,2.36108,1.71387L50,54.52,12.76392,26.21387A2.49479,2.49479,0,0,1,15.125,24.5Zm69.75,51H15.125a2.50294,2.50294,0,0,1-2.5-2.5V27.36475L49.69727,55.5459a.50006.50006,0,0,0,.60547,0L87.375,27.36475V73A2.50294,2.50294,0,0,1,84.875,75.5Z"/></g><text x="0" y="115" fill="#000000" font-size="5px" font-weight="bold" font-family="'Helvetica Neue', Helvetica, Arial-Unicode, Arial, Sans-serif">Created by pxLens</text><text x="0" y="120" fill="#000000" font-size="5px" font-weight="bold" font-family="'Helvetica Neue', Helvetica, Arial-Unicode, Arial, Sans-serif">from the Noun Project</text></svg>