<svg width="34" height="25" viewBox="0 0 34 27" fill="none" xmlns="http://www.w3.org/2000/svg">
<path d="M2.45928 0.8L2.45903 0.8C2.01067 0.800569 1.58662 1.00253 1.27804 1.35164C0.970163 1.69995 0.800479 2.16748 0.8 2.65075V2.65094L0.8 24.3491L0.8 24.3493C0.800479 24.8325 0.970163 25.3 1.27804 25.6484C1.58662 25.9975 2.01067 26.1994 2.45903 26.2H2.45928H31.5407H31.541C31.9893 26.1994 32.4134 25.9975 32.722 25.6484C33.0298 25.3 33.1995 24.8325 33.2 24.3493V24.3491V2.65094L33.2 2.65075C33.1995 2.16748 33.0298 1.69995 32.722 1.35164C32.4134 1.00253 31.9893 0.800569 31.541 0.8L31.5407 1V0.8L2.45928 0.8ZM2.45969 1.6717H31.5403C31.7102 1.67242 31.8785 1.73341 32.0213 1.8507C32.1353 1.94428 32.2285 2.07019 32.291 2.21769L17 15.3683L1.70899 2.21769C1.7715 2.07019 1.86471 1.94428 1.97865 1.8507C2.12148 1.73341 2.28981 1.67242 2.45969 1.6717ZM1.87244 25.05C1.71136 24.8678 1.61724 24.616 1.61694 24.349V3.25879L16.7433 16.2676C16.8139 16.3283 16.904 16.3641 17 16.3641C17.096 16.3641 17.186 16.3284 17.2566 16.2676C17.2566 16.2676 17.2567 16.2676 17.2567 16.2676L32.3831 3.25879V24.3488C32.3828 24.6159 32.2887 24.8678 32.1276 25.05C31.9671 25.2315 31.7553 25.328 31.5404 25.3283H2.45955C2.24467 25.328 2.03285 25.2315 1.87244 25.05Z" fill="#DB9D0C" stroke="#DB9D0C" stroke-width="0.4"/>
</svg>
