<svg width="22" height="26" viewBox="0 0 22 26" fill="none" xmlns="http://www.w3.org/2000/svg">
<path d="M19.6466 24.3722H19.7716V24.2472V23.2533C19.7716 20.2916 18.6765 18.2688 17.0576 16.9896C15.4433 15.714 13.3216 15.1879 11.2802 15.1879H10.2543C8.21294 15.1879 6.09118 15.714 4.47691 16.9896C2.85799 18.2688 1.76286 20.2916 1.76286 23.2533V24.2472V24.3722H1.88786H1.88836H19.6466ZM20.394 25.875H1.14096C0.815355 25.875 0.518555 25.5577 0.518555 25.1236V23.2533C0.518555 20.3372 1.47648 17.9478 3.16548 16.2877C4.85468 14.6273 7.28648 13.685 10.2548 13.685H11.2807C14.249 13.685 16.6808 14.6273 18.37 16.2877C20.059 17.9478 21.0169 20.3372 21.0169 23.2533V25.1234C21.0165 25.5577 20.7196 25.875 20.394 25.875ZM10.7675 12.6486C8.18075 12.6486 6.04385 10.1736 6.04385 7.08852V5.68624C6.04385 2.60059 8.18077 0.125 10.7675 0.125C13.3542 0.125 15.4911 2.60059 15.4911 5.68624V7.08852C15.4911 10.1736 13.3542 12.6486 10.7675 12.6486ZM10.7675 1.62726C8.83093 1.62726 7.28866 3.46779 7.28866 5.68566V7.08793C7.28866 9.30586 8.83148 11.1452 10.7675 11.1452C12.7035 11.1452 14.2463 9.30526 14.2463 7.08793V5.68566C14.2463 3.46779 12.7041 1.62726 10.7675 1.62726Z" fill="#DB9D0C" stroke="#4D5460" stroke-width="0.25"/>
</svg>
