<svg xmlns="http://www.w3.org/2000/svg" xmlns:xlink="http://www.w3.org/1999/xlink" version="1.1" x="0px" y="0px" viewBox="0 0 100 125" enable-background="new 0 0 100 100" xml:space="preserve"><path fill="none" stroke="#000000" stroke-width="2" stroke-miterlimit="10" d="M23.672,28.768  C18.02,34.54,25.01,48.795,38.107,61.893C51.205,74.989,65.459,81.98,71.234,76.328c0.008-0.011,0.019-0.017,0.029-0.024  l6.354-6.354c0.914-0.917,0.914-2.4,0-3.314l-8.701-8.702c-0.915-0.915-2.398-0.915-3.315,0.001l-4.973,4.974  c0,0-8.145-3.77-13.956-9.58c-5.811-5.812-9.58-13.957-9.58-13.957l4.973-4.973c0.916-0.916,0.917-2.398,0.001-3.314l-8.703-8.703  c-0.915-0.915-2.398-0.914-3.314,0.002l-6.353,6.353C23.687,28.746,23.683,28.759,23.672,28.768z"/><text x="0" y="115" fill="#000000" font-size="5px" font-weight="bold" font-family="'Helvetica Neue', Helvetica, Arial-Unicode, Arial, Sans-serif">Created by Peter ParniÄan</text><text x="0" y="120" fill="#000000" font-size="5px" font-weight="bold" font-family="'Helvetica Neue', Helvetica, Arial-Unicode, Arial, Sans-serif">from the Noun Project</text></svg>