<svg xmlns="http://www.w3.org/2000/svg" xmlns:xlink="http://www.w3.org/1999/xlink" version="1.1" x="0px" y="0px" viewBox="0 0 100 100" style="enable-background:new 0 0 100 100;" xml:space="preserve"><g><g><path d="M56.7,55c2.5-2.9,3.7-6.5,3.7-10.1c0-4-1.5-8.1-4.6-11.1c-3-3-6.9-4.6-11.1-4.6c-4.2,0-8.2,1.6-11.1,4.6    c-6.1,6.1-6.1,16.1,0,22.3c3,3,6.9,4.6,11.1,4.6c4,0,7.8-1.5,10.7-4.2l14.4,14.4l1.4-1.4L56.7,55z M54.4,54.6    c-2.6,2.6-6.1,4-9.7,4c-3.7,0-7.1-1.4-9.7-4c-5.4-5.4-5.4-14.1,0-19.5c2.6-2.6,6-4,9.7-4c1.8,0,3.6,0.4,5.3,1s3.2,1.7,4.5,3    C59.7,40.5,59.7,49.3,54.4,54.6z"></path></g></g></svg>