<svg width="25" height="27" viewBox="0 0 25 27" fill="none" xmlns="http://www.w3.org/2000/svg">
<path d="M9.56389 16.4015L9.56379 16.4016L9.56581 16.4051L14.8678 25.7107C14.9232 25.8212 14.983 25.9134 15.063 25.9774C15.1462 26.0439 15.2447 26.075 15.3669 26.075H20.8864C21.0066 26.075 21.1145 26.0446 21.1885 25.9522C21.2563 25.8673 21.2841 25.7436 21.286 25.5848C21.3371 25.4801 21.3672 25.3905 21.3672 25.2965C21.3672 25.1978 21.334 25.1041 21.2781 24.9924L21.2782 24.9924L21.2765 24.9894L16.2105 15.9352L24.1984 1.79446L24.1985 1.79451L24.2002 1.79112C24.256 1.67947 24.2893 1.5857 24.2893 1.48701C24.2893 1.38832 24.256 1.29456 24.2002 1.18291L24.1948 1.17202L24.1862 1.16342L24.1837 1.16095C24.0752 1.05246 23.9478 0.925 23.7002 0.925H18.1808C18.1066 0.925 18.011 0.959899 17.9227 1.01877C17.8327 1.07874 17.7424 1.16876 17.6816 1.28952L9.56553 15.7902L9.56546 15.7902L9.56389 15.7933C9.50807 15.905 9.4748 15.9987 9.4748 16.0974C9.4748 16.1961 9.50807 16.2899 9.56389 16.4015ZM15.0834 16.4015L15.0833 16.4015L15.0849 16.4045L19.7847 24.8427H15.7352L10.7994 16.1514L18.6574 2.26548H22.7061L15.0851 15.79L15.085 15.79L15.0834 15.7933C15.0275 15.905 14.9943 15.9987 14.9943 16.0974C14.9943 16.1961 15.0275 16.2899 15.0834 16.4015Z" fill="#DB9D0C" stroke="#DB9D0C" stroke-width="0.15"/>
<path d="M1.01686 17.8445L1.01667 17.8444L1.01409 17.8496C0.958261 17.9612 0.925 18.055 0.925 18.1537C0.925 18.2524 0.958261 18.3461 1.01409 18.4578C1.06972 18.5691 1.12972 18.662 1.21018 18.7263C1.29332 18.7928 1.39186 18.8239 1.51407 18.8239H6.70887H6.71437C6.81864 18.8239 6.93576 18.824 7.04063 18.794C7.1518 18.7622 7.25109 18.6965 7.31598 18.5682L11.211 11.8602L11.2111 11.8603L11.2132 11.8561C11.269 11.7444 11.3023 11.6507 11.3023 11.552C11.3023 11.4533 11.269 11.3595 11.2132 11.2479L11.2133 11.2478L11.2115 11.2448L8.18209 5.83502C8.12667 5.72445 8.06686 5.63214 7.98679 5.56807C7.90365 5.50156 7.80511 5.47047 7.6829 5.47047H2.4881C2.48674 5.47047 2.48535 5.47047 2.48394 5.47047C2.37671 5.47042 2.11715 5.47031 1.98811 5.72838C1.93229 5.84003 1.89903 5.93379 1.89903 6.03248C1.89903 6.13118 1.93229 6.22494 1.98811 6.33659L1.988 6.33664L1.99016 6.34041L4.8903 11.3888L1.01686 17.8445ZM6.12661 11.1396L6.12668 11.1396L6.12501 11.1366L3.58987 6.5945H7.42232L10.0854 11.3881L6.34186 17.5917H2.62056L6.11942 11.7602C6.18681 11.6884 6.21569 11.5887 6.21569 11.4843C6.21569 11.3759 6.18493 11.2563 6.12661 11.1396Z" fill="#DB9D0C" stroke="#DB9D0C" stroke-width="0.15"/>
</svg>
