<svg width="14" height="27" viewBox="0 0 14 27" fill="none" xmlns="http://www.w3.org/2000/svg">
<path d="M9.83061 1.93164C10.7241 1.93164 11.546 1.9757 12.1281 2.02184V4.21912H10.8235C10.1114 4.21912 9.56777 4.36229 9.15417 4.59607C8.73992 4.83022 8.46336 5.1512 8.2798 5.49478C7.9174 6.17314 7.91742 6.94143 7.91743 7.30905V7.31426V10.9598V11.0848H8.04243H11.8686L11.5611 13.6662H8.04392H7.91892V13.7912V25.0686H5.41769V13.79V13.665H5.29269H1.87039V11.0848H5.29232H5.41732V10.9598V6.87476C5.41732 6.87475 5.41732 6.87475 5.41732 6.87474C5.4175 5.28438 5.8259 4.05084 6.57326 3.21622C7.31884 2.3836 8.4164 1.93164 9.83061 1.93164ZM9.83187 0.875193H9.83061C8.2342 0.875193 6.878 1.40301 5.92158 2.42574C4.9659 3.44766 4.4223 4.94981 4.4223 6.87474V10.0283H1H0.875V10.1533V14.5965V14.7215H1H4.42193V26V26.125H4.54693H8.7893H8.9143V26V14.7215H12.3273H12.4383L12.4514 14.6113L12.981 10.1681L12.9977 10.0283H12.8569H8.9143V7.31466C8.9143 6.67549 8.99793 6.17192 9.26624 5.82707C9.52868 5.48978 9.99182 5.27597 10.825 5.27597H13H13.125V5.15097V1.17519V1.0637L13.0142 1.051C11.9572 0.929868 10.8948 0.871176 9.83187 0.875193Z" fill="#DB9D0C" stroke="#DB9D0C" stroke-width="0.25"/>
</svg>
