<svg width="27" height="27" viewBox="0 0 27 27" fill="none" xmlns="http://www.w3.org/2000/svg">
<path d="M20.25 8.27183H22.1111C22.9269 8.27183 23.5972 7.6351 23.5972 6.81201V4.94883C23.5972 4.15523 22.9286 3.48901 22.1111 3.48901H20.25C19.4586 3.48901 18.7917 4.1569 18.7917 4.94883V6.81201C18.7917 7.60394 19.4586 8.27183 20.25 8.27183ZM19.8472 4.94883C19.8472 4.73965 20.0414 4.54547 20.25 4.54547H22.1111C22.3561 4.54547 22.5417 4.72011 22.5417 4.94883V6.81201C22.5417 7.01709 22.3517 7.21538 22.1111 7.21538H20.25C20.0414 7.21538 19.8472 7.02119 19.8472 6.81201V4.94883Z" fill="#DB9D0C" stroke="#DB9D0C" stroke-width="0.25"/>
<path d="M21.0556 0.875H5.94445C3.12574 0.875 0.875 3.12752 0.875 5.92214V21.0501C0.875 23.8442 3.15306 26.125 5.94445 26.125H21.0556C23.8469 26.125 26.125 23.8442 26.125 21.0501V5.92214C26.125 3.12707 23.846 0.875 21.0556 0.875ZM5.94445 1.93145H21.0556C23.2647 1.93145 25.0694 3.73908 25.0694 5.92214V9.35665H18.1054C16.8356 8.1597 15.1253 7.46566 13.2778 7.46566C11.429 7.46566 9.71944 8.18783 8.45094 9.35665H1.93056V5.92214C1.93056 3.71128 3.70751 1.93145 5.94445 1.93145ZM8.97841 10.2919L9.01899 10.2513L9.05954 10.2107C9.05972 10.2105 9.0599 10.2103 9.06008 10.2102C10.1486 9.14791 11.6452 8.4943 13.2778 8.4943C16.6238 8.4943 19.3194 11.2454 19.3194 14.5984C19.3194 17.9496 16.5979 20.647 13.2778 20.647C9.92918 20.647 7.18056 17.9211 7.18056 14.5984C7.18056 12.9384 7.88732 11.4118 8.97787 10.2925C8.97805 10.2923 8.97823 10.2921 8.97841 10.2919ZM21.0556 25.0686H5.94445C3.73583 25.0686 1.93056 23.2615 1.93056 21.0501V10.4131H7.52553C6.65811 11.5955 6.15278 13.048 6.15278 14.6263C6.15278 18.5609 9.34782 21.759 13.3056 21.759C17.2365 21.759 20.4028 18.5599 20.4028 14.6263C20.4028 13.048 19.8974 11.5955 19.03 10.4131H25.0694V21.0771C25.0421 23.2896 23.2636 25.0686 21.0556 25.0686Z" fill="#DB9D0C" stroke="#DB9D0C" stroke-width="0.25"/>
<path d="M10.1805 14.5706L10.1805 14.5687C10.1538 12.8883 11.5402 11.4977 13.25 11.4977C14.9579 11.4977 16.3194 12.8869 16.3194 14.5706C16.3194 16.2808 14.9315 17.6436 13.25 17.6436C11.542 17.6436 10.1805 16.2544 10.1805 14.5706ZM13.25 18.7279C15.5425 18.7279 17.375 16.8631 17.375 14.5706C17.375 12.2776 15.5141 10.4134 13.25 10.4134C10.9577 10.4134 9.12537 12.2778 9.12495 14.5699C9.09672 16.8646 10.9591 18.7279 13.25 18.7279Z" fill="#DB9D0C" stroke="#DB9D0C" stroke-width="0.25"/>
</svg>
