<svg width="27" height="27" viewBox="0 0 27 27" fill="none" xmlns="http://www.w3.org/2000/svg">
<path d="M22.875 1.90625C24.0982 1.90625 25.0938 2.90185 25.0938 4.125V22.875C25.0938 24.0982 24.0982 25.0938 22.875 25.0938H4.125C2.90185 25.0938 1.90625 24.0982 1.90625 22.875V4.125C1.90625 2.90185 2.90185 1.90625 4.125 1.90625H22.875ZM22.875 0.875H4.125C2.33721 0.875 0.875 2.33721 0.875 4.125V22.875C0.875 24.6628 2.33721 26.125 4.125 26.125H22.875C24.6628 26.125 26.125 24.6628 26.125 22.875V4.125C26.125 2.33721 24.6628 0.875 22.875 0.875Z" fill="#DB9D0C" stroke="#DB9D0C" stroke-width="0.25"/>
<path fill-rule="evenodd" clip-rule="evenodd" d="M21.2452 15.5787V20.9089H17.8145V15.9474C17.8145 14.6491 17.2783 13.7637 16.0984 13.7637C15.1953 13.7637 14.6926 14.3615 14.46 14.9367C14.3716 15.1449 14.3859 15.4324 14.3859 15.7214V20.9089H10.9868C10.9868 20.9089 11.031 12.1215 10.9868 11.3225H14.3859V12.8272C14.5867 12.1692 15.6733 11.2309 17.4054 11.2309C19.5556 11.2309 21.2452 12.6085 21.2452 15.5787Z" stroke="#DB9D0C" stroke-linejoin="round"/>
<path fill-rule="evenodd" clip-rule="evenodd" d="M6.11542 20.9089H9.14019V11.3228H6.11542V20.9089Z" stroke="#DB9D0C" stroke-linejoin="round"/>
<path fill-rule="evenodd" clip-rule="evenodd" d="M9.33185 8.50751C9.33185 9.34935 8.68846 10.0168 7.65792 10.0168H7.63703C6.64339 10.0168 6 9.35249 6 8.50925C6 7.64966 6.66254 7 7.67706 7C8.68846 7 9.31096 7.64827 9.33185 8.50751Z" stroke="#DB9D0C" stroke-linejoin="round"/>
</svg>
