<svg width="12" height="19" viewBox="0 0 12 19" fill="none" xmlns="http://www.w3.org/2000/svg">
<path d="M9.90789 2.43384C8.75421 2.43384 7.81579 3.37227 7.81579 4.52595C7.81579 5.3387 8.28253 6.04298 8.96122 6.38923C8.73222 7.04081 8.29786 7.59614 7.73285 7.97342C7.35635 7.41801 6.72016 7.05226 6 7.05226C5.27413 7.05226 4.63398 7.4241 4.25865 7.98699C3.68686 7.61187 3.2459 7.05619 3.0128 6.40172C3.70542 6.06037 4.18421 5.34896 4.18421 4.52595C4.18421 4.01429 3.999 3.54554 3.69293 3.18164C4.26882 2.57235 5.08195 2.1896 5.98458 2.1896C6.12442 2.1896 6.2634 2.20201 6.40135 2.22005L5.32741 3.28931C5.20405 3.41236 5.20343 3.6125 5.32648 3.73616C5.38816 3.79784 5.46926 3.82899 5.55037 3.82899C5.63086 3.82899 5.71166 3.79846 5.77333 3.73709L7.30171 2.21519C7.41026 2.10664 7.42537 1.93579 7.33748 1.81028L6.16437 0.134808C6.06445 -0.00828446 5.86678 -0.0428239 5.72461 0.0570938C5.58152 0.15732 5.54698 0.354072 5.6469 0.496855L6.40723 1.58292C6.26708 1.5675 6.12605 1.55802 5.98458 1.55802C4.89302 1.55802 3.91075 2.02476 3.21876 2.7659C2.89316 2.55673 2.50706 2.43384 2.09211 2.43384C0.938425 2.43384 0 3.37227 0 4.52595C0 5.67963 0.938425 6.61805 2.09211 6.61805C2.20056 6.61805 2.30628 6.60718 2.41034 6.59122C2.6982 7.41539 3.26188 8.10888 3.9918 8.5629C3.93817 8.74774 3.90789 8.94245 3.90789 9.14437C3.90789 10.298 4.84632 11.2365 6 11.2365C7.15368 11.2365 8.0921 10.298 8.0921 9.14437C8.0921 8.93667 8.06069 8.73637 8.00406 8.54679C8.72266 8.09172 9.2768 7.40302 9.56075 6.58683C9.67392 6.60583 9.7894 6.61805 9.90789 6.61805C11.0616 6.61805 12 5.67963 12 4.52595C12 3.37227 11.0616 2.43384 9.90789 2.43384ZM2.25189 5.97028C2.19871 5.97622 2.14682 5.98647 2.09211 5.98647C1.2869 5.98647 0.631579 5.33115 0.631579 4.52595C0.631579 3.72075 1.2869 3.06542 2.09211 3.06542C2.35865 3.06542 2.60546 3.14252 2.82083 3.2678C3.00873 3.37712 3.17266 3.52253 3.29547 3.70109C3.45711 3.93608 3.55263 4.21987 3.55263 4.52595C3.55263 5.04936 3.27339 5.5057 2.85843 5.76366C2.67839 5.87553 2.47256 5.94584 2.25189 5.97028ZM7.46053 9.14437C7.46053 9.94957 6.8052 10.6049 6 10.6049C5.1948 10.6049 4.53947 9.94957 4.53947 9.14437C4.53947 9.04638 4.54992 8.95085 4.56842 8.85818C4.61106 8.6447 4.70315 8.45049 4.82805 8.28142C5.09428 7.92099 5.51861 7.68384 6 7.68384C6.47737 7.68384 6.8981 7.91745 7.16478 8.27279C7.29112 8.44109 7.38565 8.63429 7.42988 8.84754C7.44977 8.94345 7.46053 9.04268 7.46053 9.14437ZM9.90789 5.98647C9.84288 5.98647 9.78084 5.97553 9.71804 5.96728C9.4976 5.93821 9.29166 5.86458 9.11337 5.74832C8.71345 5.48742 8.44737 5.03791 8.44737 4.52595C8.44737 3.72075 9.10269 3.06542 9.90789 3.06542C10.7131 3.06542 11.3684 3.72075 11.3684 4.52595C11.3684 5.33115 10.7131 5.98647 9.90789 5.98647Z" fill="#E1993D"/>
<path d="M6 11.947C3.74537 11.947 1.91108 13.7813 1.91108 16.0359V17.947C1.91108 18.1216 2.05232 18.2628 2.22687 18.2628H9.77313C9.94768 18.2628 10.0889 18.1216 10.0889 17.947V16.0359C10.0889 13.7813 8.25462 11.947 6 11.947ZM9.45734 17.6312H2.54266V16.0359C2.54266 14.1295 4.09354 12.5786 6 12.5786C7.90645 12.5786 9.45734 14.1295 9.45734 16.0359V17.6312V17.6312Z" fill="#E1993D"/>
</svg>
